<svg width="22" height="22" viewBox="0 0 22 22" fill="none" xmlns="http://www.w3.org/2000/svg">
<g clip-path="url(#clip0_3018_25260)">
<path d="M17.7066 7.0434C17.5447 6.901 17.3176 6.83629 17.0954 6.86937C16.8727 6.90233 16.6804 7.02887 16.5771 7.21046C16.2219 7.83518 15.7707 8.40929 15.2399 8.9168C15.2928 8.55019 15.3194 8.18139 15.3194 7.81159C15.3194 7.10205 15.2144 6.37188 15.0071 5.64111C14.3256 3.24082 12.5385 1.21093 10.1043 0.0719564C9.89236 -0.0271728 9.63984 -0.0236923 9.43133 0.0812376C9.22282 0.186211 9.08626 0.378668 9.06756 0.593942C8.87779 2.77521 7.63668 4.75969 5.66057 6.03982C5.63441 6.05687 5.60845 6.07415 5.58249 6.09134C5.52871 6.12696 5.47802 6.16065 5.43065 6.18892C5.42324 6.19339 5.41588 6.19794 5.40867 6.20263C4.16585 7.00816 3.14037 8.08195 2.44296 9.30824C1.73431 10.5556 1.375 11.8941 1.375 13.2865C1.375 13.9958 1.48004 14.726 1.68722 15.4569C2.78058 19.3094 6.61025 22 11.0003 22C16.3074 22 20.625 18.0911 20.625 13.2865C20.625 10.9172 19.5886 8.70002 17.7066 7.0434Z" fill="#FC615D"/>
<path d="M7.645 11.5327H8.6845V17.25H7.645V14.7172H5.16175V17.25H4.12225V11.5327H5.16175V13.818H7.645V11.5327ZM10.0767 14.3872C10.0767 14.7007 10.1152 14.9867 10.1922 15.2452C10.2692 15.4982 10.3792 15.7155 10.5222 15.897C10.6707 16.073 10.8494 16.2105 11.0584 16.3095C11.2674 16.4085 11.5039 16.458 11.7679 16.458C12.0264 16.458 12.2602 16.4085 12.4692 16.3095C12.6782 16.2105 12.8542 16.073 12.9972 15.897C13.1457 15.7155 13.2584 15.4982 13.3354 15.2452C13.4124 14.9867 13.4509 14.7007 13.4509 14.3872C13.4509 14.0737 13.4124 13.7905 13.3354 13.5375C13.2584 13.279 13.1457 13.0617 12.9972 12.8857C12.8542 12.7042 12.6782 12.564 12.4692 12.465C12.2602 12.366 12.0264 12.3165 11.7679 12.3165C11.5039 12.3165 11.2674 12.366 11.0584 12.465C10.8494 12.564 10.6707 12.7042 10.5222 12.8857C10.3792 13.0672 10.2692 13.2845 10.1922 13.5375C10.1152 13.7905 10.0767 14.0737 10.0767 14.3872ZM14.5399 14.3872C14.5399 14.8767 14.4657 15.3085 14.3172 15.6825C14.1742 16.0565 13.9762 16.37 13.7232 16.623C13.4757 16.8705 13.1842 17.0575 12.8487 17.184C12.5132 17.3105 12.1557 17.3738 11.7762 17.3738C11.3967 17.3738 11.0364 17.3105 10.6954 17.184C10.3599 17.0575 10.0657 16.8705 9.81269 16.623C9.56519 16.37 9.36719 16.0565 9.21869 15.6825C9.07019 15.3085 8.99594 14.8767 8.99594 14.3872C8.99594 13.8977 9.07019 13.4687 9.21869 13.1002C9.36719 12.7262 9.56794 12.4127 9.82094 12.1597C10.0794 11.9067 10.3764 11.717 10.7119 11.5905C11.0474 11.464 11.4022 11.4007 11.7762 11.4007C12.1502 11.4007 12.5049 11.464 12.8404 11.5905C13.1759 11.717 13.4674 11.9067 13.7149 12.1597C13.9679 12.4127 14.1687 12.7262 14.3172 13.1002C14.4657 13.4687 14.5399 13.8977 14.5399 14.3872ZM18.6386 11.5327V12.432H16.8814V17.25H15.8336V12.432H14.0764V11.5327H18.6386Z" fill="white"/>
</g>
<defs>
<clipPath id="clip0_3018_25260">
<rect width="22" height="22" fill="white"/>
</clipPath>
</defs>
</svg>
