<svg width="30" height="30" viewBox="0 0 30 30" fill="none" xmlns="http://www.w3.org/2000/svg">
<g id="fi_4325956">
<g id="Group">
<g id="Group_2">
<path id="Vector" d="M15.0317 29.0108C19.5836 29.0108 23.6744 26.1035 25.0382 21.7608C25.3267 20.8421 25.5024 19.867 25.5024 18.8545C25.5024 13.1905 20.8651 8.6202 20.8651 8.6202C20.8651 8.6202 21.1846 10.4704 20.9858 12.0452C20.7871 13.6201 20.0547 14.5869 20.0547 14.5869C20.0547 14.5869 20.5895 12.114 19.8789 10.4561C19.0609 8.54777 17.5353 7.66254 16.9492 5.94434C16.2747 3.9668 17.2854 1.66699 17.2854 1.66699C17.2854 1.66699 13.9609 2.9516 11.5586 6.2666C8.83397 10.0263 10.67 14.8702 10.67 14.8702C10.67 14.8702 10.416 13.5322 9.03905 12.4482C7.6621 11.3643 8.21991 9.68309 8.21991 9.68309C8.21991 9.68309 4.4978 13.8546 4.4978 18.8546C4.4978 20.212 4.88651 21.581 5.45276 22.8552C7.12714 26.6224 10.909 29.0108 15.0317 29.0108Z" fill="#D10028"/>
</g>
<g id="Group_3">
<g id="Group_4">
<path id="Vector_2" d="M20.8651 8.62036C20.8651 8.62036 21.0385 9.62595 21.0501 10.7853C22.1353 12.6029 23.1587 15.0222 23.1587 17.6828C23.1587 18.6953 22.983 19.6704 22.6945 20.5891C21.3307 24.9318 17.2399 27.8391 12.688 27.8391C11.4644 27.8391 10.2716 27.6272 9.15417 27.2328C10.8596 28.3708 12.8996 29.011 15.0317 29.011C19.5836 29.011 23.6744 26.1037 25.0382 21.7609C25.3268 20.8423 25.5024 19.8672 25.5024 18.8547C25.5023 13.1907 20.8651 8.62036 20.8651 8.62036Z" fill="#B7022D"/>
</g>
</g>
<g id="Group_5">
<path id="Vector_3" d="M20.2849 21.332C20.2849 18.472 18.4086 16.6272 17.2403 15.4437C15.1598 13.3359 15.5292 10.9375 15.5292 10.9375C15.5292 10.9375 11.4517 14.443 10.811 17.3507C10.1985 20.1317 11.7394 21.6776 11.7394 21.6776C11.7394 21.6776 11.0214 21.4005 10.5749 20.9038C10.0062 20.2714 9.80179 19.5051 9.80179 19.5051C9.80179 19.5051 9.56414 20.0801 9.87574 22.0475C10.0972 23.4457 10.8238 24.4922 11.6763 25.2624C13.7484 27.1341 16.9799 26.9529 18.8579 24.8866C19.6627 24.0013 20.2849 22.8318 20.2849 21.332Z" fill="#FFA91A"/>
</g>
<g id="Group_6">
<path id="Vector_4" d="M12.2394 21.4174C12.1773 21.4174 12.1153 21.3929 12.0693 21.3443C11.9737 21.2435 11.1356 20.3114 11.1356 18.6351C11.1356 18.2514 11.1805 17.8532 11.2689 17.4516C11.3984 16.8638 11.6921 16.2006 12.1419 15.4805C12.2105 15.3707 12.355 15.3372 12.4649 15.4058C12.5747 15.4744 12.6081 15.619 12.5395 15.7288C12.1181 16.4035 11.8447 17.0169 11.7267 17.5524C11.6456 17.9209 11.6045 18.2851 11.6045 18.6351C11.6045 20.1554 12.3766 20.9871 12.4096 21.0218C12.4986 21.1157 12.4948 21.264 12.4008 21.3531C12.3553 21.3961 12.2973 21.4174 12.2394 21.4174ZM12.8684 15.0644C12.8202 15.0644 12.7716 15.0496 12.7297 15.0189C12.6254 14.9422 12.6029 14.7955 12.6796 14.6912L12.7484 14.5983C12.8258 14.4946 12.9725 14.4734 13.0764 14.5506C13.1801 14.6281 13.2014 14.7749 13.1241 14.8786L13.0573 14.9687C13.0114 15.0313 12.9403 15.0644 12.8684 15.0644Z" fill="#FFC91D"/>
</g>
<g id="Group_7">
<path id="Vector_5" d="M17.2404 15.4437C15.1599 13.3359 15.5293 10.9375 15.5293 10.9375C15.5293 10.9375 14.2339 12.0514 12.9886 13.544C14.1351 14.7299 15.5974 16.4631 15.5974 18.9883C15.5974 20.488 14.9751 21.6576 14.1704 22.5429C13.2523 23.5531 12.0107 24.1114 10.7394 24.2009C11.0157 24.6018 11.3355 24.9546 11.6763 25.2625C13.7484 27.1342 16.9798 26.953 18.8579 24.8867C19.6626 24.0013 20.2849 22.8318 20.2849 21.332C20.285 18.472 18.4086 16.6273 17.2404 15.4437Z" fill="#F79219"/>
</g>
<g id="Group_8">
<path id="Vector_6" d="M17.2403 15.4437C15.1598 13.3359 15.5292 10.9375 15.5292 10.9375C15.5292 10.9375 14.7116 11.6412 13.7514 12.6782C14.0093 13.1996 14.3763 13.7447 14.8965 14.2718C16.0648 15.4554 17.9412 17.3001 17.9412 20.1602C17.9412 21.6599 17.3189 22.8294 16.5142 23.7148C15.2627 25.0918 13.4106 25.6302 11.7008 25.2835C13.7739 27.1321 16.9871 26.9451 18.8579 24.8867C19.6626 24.0013 20.2849 22.8318 20.2849 21.332C20.2849 18.472 18.4085 16.6273 17.2403 15.4437Z" fill="#EF7816"/>
</g>
<g id="Group_9">
<path id="Vector_7" d="M19.3052 0.989014C19.3052 0.989014 17.898 1.87636 17.9247 3.52331C17.9388 4.39319 18.3831 5.09257 18.7079 5.86741C18.9979 6.55952 19.0556 7.61234 19.0556 7.61234C19.0556 7.61234 20.0197 6.78487 20.1227 4.94948C20.1631 4.22925 19.7818 3.35772 19.5829 2.7337C19.275 1.76749 19.3052 0.989014 19.3052 0.989014Z" fill="#D10028"/>
</g>
<g id="Group_10">
<path id="Vector_8" d="M9.08961 8.96121C9.08961 8.96121 7.89852 7.79461 8.2727 6.1868C8.47027 5.33754 9.35211 4.78207 9.93043 4.17023C10.5199 3.54668 10.7913 2.41992 10.7913 2.41992C10.7913 2.41992 11.4215 3.18973 11.0247 4.68059C10.7697 5.63883 9.97379 6.33305 9.64707 6.90246C9.14117 7.78371 9.08961 8.96121 9.08961 8.96121Z" fill="#D10028"/>
</g>
</g>
</g>
</svg>
