<svg width="98" height="34" viewBox="0 0 98 34" fill="none" xmlns="http://www.w3.org/2000/svg">
<g clip-path="url(#clip0_3006_20305)">
<path d="M4.7506 27.5599V15.816H0.436401V13.4247H11.9905V15.816H7.68623V27.5599H4.7506ZM10.9103 22.2954C10.9103 21.3955 11.1384 20.5244 11.5946 19.6824C12.0508 18.8403 12.6955 18.1975 13.5285 17.754C14.3682 17.3104 15.3038 17.0886 16.3352 17.0886C17.9287 17.0886 19.2345 17.5932 20.2527 18.6024C21.271 19.6052 21.7801 20.8748 21.7801 22.411C21.7801 23.9602 21.2644 25.2458 20.2329 26.2679C19.2081 27.2835 17.9155 27.7912 16.3551 27.7912C15.3897 27.7912 14.4674 27.5792 13.588 27.1549C12.7153 26.7307 12.0508 26.1104 11.5946 25.294C11.1384 24.4712 10.9103 23.4716 10.9103 22.2954ZM13.7666 22.44C13.7666 23.4556 14.0145 24.2334 14.5104 24.7733C15.0063 25.3133 15.6179 25.5832 16.3452 25.5832C17.0725 25.5832 17.6807 25.3133 18.1701 24.7733C18.6659 24.2334 18.9138 23.4492 18.9138 22.4207C18.9138 21.4179 18.6659 20.6466 18.1701 20.1066C17.6807 19.5667 17.0725 19.2966 16.3452 19.2966C15.6179 19.2966 15.0063 19.5667 14.5104 20.1066C14.0145 20.6466 13.7666 21.4243 13.7666 22.44ZM22.5148 22.2954C22.5148 21.3955 22.7428 20.5244 23.199 19.6824C23.6553 18.8403 24.2999 18.1975 25.133 17.754C25.9728 17.3104 26.9083 17.0886 27.9398 17.0886C29.5332 17.0886 30.839 17.5932 31.8572 18.6024C32.8754 19.6052 33.3845 20.8748 33.3845 22.411C33.3845 23.9602 32.8688 25.2458 31.8374 26.2679C30.8126 27.2835 29.5199 27.7912 27.9595 27.7912C26.9943 27.7912 26.0719 27.5792 25.1926 27.1549C24.3198 26.7307 23.6553 26.1104 23.199 25.294C22.7428 24.4712 22.5148 23.4716 22.5148 22.2954ZM25.371 22.44C25.371 23.4556 25.619 24.2334 26.1149 24.7733C26.6107 25.3133 27.2224 25.5832 27.9497 25.5832C28.6769 25.5832 29.2853 25.3133 29.7745 24.7733C30.2704 24.2334 30.5184 23.4492 30.5184 22.4207C30.5184 21.4179 30.2704 20.6466 29.7745 20.1066C29.2853 19.5667 28.6769 19.2966 27.9497 19.2966C27.2224 19.2966 26.6107 19.5667 26.1149 20.1066C25.619 20.6466 25.371 21.4243 25.371 22.44ZM44.3443 27.5599H41.5575V22.3339C41.5575 21.2283 41.4981 20.5148 41.379 20.1934C41.26 19.8656 41.0649 19.6116 40.7938 19.4317C40.5294 19.2517 40.2087 19.1617 39.8319 19.1617C39.3492 19.1617 38.9162 19.2903 38.5326 19.5473C38.1491 19.8045 37.8846 20.1452 37.7392 20.5694C37.6004 20.9937 37.5309 21.7779 37.5309 22.922V27.5599H34.744V17.3201H37.3326V18.8242C38.2516 17.6672 39.4087 17.0886 40.8038 17.0886C41.4187 17.0886 41.9807 17.1979 42.4897 17.4165C42.9989 17.6287 43.3824 17.9018 43.6402 18.2361C43.9047 18.5703 44.0865 18.9495 44.1858 19.3738C44.2914 19.798 44.3443 20.4055 44.3443 21.1962V27.5599Z" fill="white"/>
<path d="M93.6162 9.37604H54.9423C52.5212 9.37604 50.5586 11.2841 50.5586 13.6379V29.7382C50.5586 32.0919 52.5212 34 54.9423 34H93.6162C96.0373 34 97.9999 32.0919 97.9999 29.7382V13.6379C97.9999 11.2841 96.0373 9.37604 93.6162 9.37604Z" fill="#FEEC49"/>
<mask id="mask0_3006_20305" style="mask-type:alpha" maskUnits="userSpaceOnUse" x="78" y="0" width="17" height="10">
<path d="M94.6796 0H78.322V9.39031H94.6796V0Z" fill="#D9D9D9"/>
</mask>
<g mask="url(#mask0_3006_20305)">
<path d="M91.6559 9.47026H90.5888L90.4937 5.00531C90.4703 3.94663 89.1555 3.43016 88.3828 4.17685L82.7822 9.58229H58.3081C54.9072 9.5838 52.1498 12.2646 52.1498 15.5709V21.7277C52.1498 25.2626 55.0973 28.1282 58.7333 28.1282H91.4907C95.0583 28.1282 97.9493 25.3172 97.9493 21.8488V15.5891C97.9493 12.2101 95.133 9.47176 91.6574 9.47176L91.6559 9.47026Z" fill="#FEEC49"/>
</g>
<path d="M60.8356 13.665V19.1219C61.7797 18.0488 62.9079 17.5122 64.22 17.5122C64.8934 17.5122 65.5008 17.6337 66.0423 17.8767C66.5839 18.1196 66.99 18.4301 67.2607 18.808C67.5384 19.186 67.7259 19.6045 67.8231 20.0635C67.9272 20.5224 67.9792 21.2344 67.9792 22.1996V28.5069H65.0531V22.8273C65.0531 21.7002 64.9975 20.9847 64.8864 20.681C64.7753 20.3773 64.5775 20.1377 64.2928 19.9622C64.0151 19.7799 63.6646 19.6888 63.2411 19.6888C62.7551 19.6888 62.3213 19.8036 61.9394 20.0331C61.5575 20.2626 61.2764 20.6101 61.0959 21.0758C60.9224 21.5349 60.8356 22.2165 60.8356 23.1209V28.5069H57.9093V13.665H60.8356ZM77.3835 28.5069V26.8972C76.9809 27.4709 76.4498 27.9232 75.7903 28.2539C75.1377 28.5846 74.4469 28.75 73.718 28.75C72.9751 28.75 72.3087 28.5913 71.7185 28.2741C71.1285 27.9569 70.7015 27.5114 70.4377 26.9377C70.1739 26.364 70.042 25.5709 70.042 24.5586V17.7552H72.9682V22.6957C72.9682 24.2076 73.0203 25.1356 73.1244 25.4798C73.2355 25.8173 73.4333 26.0873 73.718 26.2897C74.0026 26.4855 74.3636 26.5833 74.801 26.5833C75.3008 26.5833 75.7486 26.4518 76.1443 26.1885C76.54 25.9186 76.8108 25.5879 76.9566 25.1963C77.1024 24.7982 77.1753 23.8296 77.1753 22.2907V17.7552H80.1015V28.5069H77.3835ZM82.1642 28.5069V13.665H85.0904V19.0105C85.9929 18.0116 87.0621 17.5122 88.2978 17.5122C89.6446 17.5122 90.7589 17.988 91.6406 18.9397C92.5222 19.8846 92.9631 21.2446 92.9631 23.0197C92.9631 24.8555 92.5118 26.2695 91.6093 27.2616C90.7138 28.2539 89.6238 28.75 88.3395 28.75C87.7077 28.75 87.0829 28.598 86.465 28.2943C85.8541 27.9839 85.3265 27.5282 84.8822 26.9276V28.5069H82.1642ZM85.0696 22.8982C85.0696 24.0118 85.2501 24.8352 85.6111 25.3684C86.1179 26.1244 86.7913 26.5024 87.6314 26.5024C88.2769 26.5024 88.8254 26.2358 89.2767 25.7026C89.7349 25.1626 89.964 24.3156 89.964 23.1615C89.964 21.933 89.7349 21.0488 89.2767 20.5089C88.8185 19.9622 88.2318 19.6888 87.5168 19.6888C86.8156 19.6888 86.2325 19.9554 85.7673 20.4886C85.3022 21.0151 85.0696 21.8183 85.0696 22.8982Z" fill="#080808"/>
</g>
<defs>
<clipPath id="clip0_3006_20305">
<rect width="98" height="34" fill="white"/>
</clipPath>
</defs>
</svg>
